<svg version="1.1" xmlns="http://www.w3.org/2000/svg" xmlns:xlink="http://www.w3.org/1999/xlink" x="0px" y="0px" viewBox="0 0 30 30" enable-background="new 0 0 256 256" xml:space="preserve" width="30" height="30"><metadata></metadata><g><g><path fill="#9b2c2c" d="M24.223 1.172H5.777C3.234 1.172 1.172 3.234 1.172 5.777v18.434c0 2.543 2.063 4.605 4.605 4.605h18.434c2.543 0 4.605 -2.063 4.605 -4.605V5.777C28.828 3.234 26.766 1.172 24.223 1.172m1.148 17.508c0 3.703 -3.012 6.691 -6.738 6.691H11.367c-3.727 0 -6.75 -3 -6.75 -6.691V11.32C4.617 7.617 7.641 4.629 11.367 4.629h3.398c3.727 0 6.703 2.777 6.703 6.48 0.047 0.691 0.68 1.301 1.383 1.301h1.16c0.75 0 1.336 0.785 1.336 1.523v4.746zm-5.18 -0.223c0 0.949 -0.773 1.734 -1.734 1.734h-6.914c-0.949 0 -1.734 -0.773 -1.734 -1.734 0 -0.949 0.773 -1.734 1.734 -1.734h6.914c0.949 0.012 1.734 0.785 1.734 1.734m-3.457 -6.914c0 0.949 -0.773 1.734 -1.734 1.734H11.543c-0.949 0 -1.734 -0.773 -1.734 -1.734 0 -0.949 0.773 -1.734 1.734 -1.734H15c0.949 0.012 1.734 0.785 1.734 1.734"/></g></g></svg>