<svg version="1.1" id="Layer_1" xmlns="http://www.w3.org/2000/svg" xmlns:xlink="http://www.w3.org/1999/xlink" x="0px" y="0px" viewBox="0 0 36.014 30" fill="#9b2c2c" style="enable-background:new 0 0 122.88 102.36" xml:space="preserve" width="36.014" height="30"><style type="text/css"></style><g><path class="st0" d="M8.743 26.246v-10.821h4.868c2.064 0.37 4.127 1.489 6.19 2.787h3.78c1.712 0.102 2.609 1.838 0.944 2.977 -1.325 0.974 -3.074 0.917 -4.868 0.756 -1.236 -0.061 -1.289 1.6 0 1.606 0.449 0.035 0.935 -0.071 1.36 -0.071 2.239 -0.002 4.079 -0.431 5.208 -2.198l0.565 -1.322 5.624 -2.787c2.814 -0.926 4.813 2.017 2.741 4.065a73.709 73.709 0 0 1 -12.523 7.371c-3.103 1.887 -6.208 1.824 -9.308 0zM22.297 2.286C23.361 1.175 24.107 0.217 25.748 0.029c3.077 -0.354 5.909 2.799 4.355 5.903 -0.443 0.885 -1.342 1.934 -2.339 2.966 -1.094 1.131 -2.304 2.242 -3.154 3.083l-2.312 2.295 -1.911 -1.84c-2.298 -2.212 -6.047 -5 -6.169 -8.452C14.129 1.565 16.041 0.014 18.233 0.044c1.964 0.024 2.787 1 4.065 2.242M0 14.384h7.277v12.948H0z"/></g></svg>