<svg version="1.1" id="Layer_1" xmlns="http://www.w3.org/2000/svg" xmlns:xlink="http://www.w3.org/1999/xlink" x="0px" y="0px" viewBox="0 0 26.858 30" fill="#9b2c2c" style="enable-background:new 0 0 110.01 122.88" xml:space="preserve" width="26.858" height="30"><style type="text/css">.st0{fill-rule:evenodd;clip-rule:evenodd;}</style><g><path class="st0" d="M0.457 3.586h5.532L5.981 3.492V1.008C5.981 0.454 6.558 0 7.266 0 7.971 0 8.55 0.457 8.55 1.008V3.492l-0.007 0.095h9.422l-0.007 -0.095V1.008C17.956 0.454 18.533 0 19.238 0s1.284 0.457 1.284 1.008V3.492l-0.007 0.095h5.886a0.457 0.457 0 0 1 0.457 0.457v4.751a0.457 0.457 0 0 1 -0.457 0.457H0.457A0.461 0.461 0 0 1 0 8.792V4.04c0 -0.252 0.205 -0.454 0.457 -0.454m7.197 16.807a1.334 1.334 0 0 1 -0.134 -1.877 1.33 1.33 0 0 1 1.877 -0.137l3.039 2.637 4.959 -4.893a1.334 1.334 0 0 1 1.883 0.004 1.334 1.334 0 0 1 -0.004 1.883l-5.84 5.762a1.334 1.334 0 0 1 -1.809 0.064zM0.115 10.3h26.631c0.064 0 0.112 0.051 0.112 0.115v19.473a0.113 0.113 0 0 1 -0.112 0.112H0.115a0.113 0.113 0 0 1 -0.112 -0.112V10.415a0.111 0.111 0 0 1 0.112 -0.115m2.044 2.048h22.91c0.127 0 0.229 0.11 0.229 0.229v15.344a0.239 0.239 0 0 1 -0.229 0.229H2.048a0.233 0.233 0 0 1 -0.229 -0.229V12.687c0 -0.252 0.205 -0.454 0.454 -0.454zm16.968 -5.056c0.705 0 1.284 -0.457 1.284 -1.008V3.689l-0.007 -0.1h-2.552l-0.007 0.1v2.481c0 0.554 0.577 1.008 1.282 1.008zm-11.975 0c0.705 0 1.284 -0.457 1.284 -1.008V3.689l-0.007 -0.1H5.874l-0.007 0.1v2.481c0 0.554 0.577 1.008 1.282 1.008v0.115z"/></g></svg>