<svg height="80px" width="80px" version="1.1" id="Layer_1" xmlns="http://www.w3.org/2000/svg" xmlns:xlink="http://www.w3.org/1999/xlink" viewBox="0 0 30.319 30.319" xml:space="preserve"><g><path style="fill:#E8E8E8;" points="219.821,0 32.842,0 32.842,303.188 270.346,303.188 270.346,50.525 	" d="M21.983 0H3.284v30.319h23.751V5.052Z"/><path style="fill:#FB3449;" d="M23.001 14.993c-0.364 -0.649 -1.623 -0.853 -2.2 -0.945a8.8 8.8 0 0 0 -1.38 -0.093c-0.361 -0.003 -0.717 0.016 -1.069 0.036l-0.387 0.031a9.333 9.333 0 0 1 -0.381 -0.42c-0.783 -0.925 -1.413 -1.976 -1.928 -3.067 0.136 -0.527 0.245 -1.077 0.312 -1.648 0.12 -1.043 0.161 -2.231 -0.229 -3.225 -0.135 -0.343 -0.495 -0.761 -0.909 -0.553 -0.477 0.239 -0.611 0.917 -0.651 1.397a4.667 4.667 0 0 0 0.056 1.16c0.067 0.384 0.173 0.749 0.289 1.113a16 16 0 0 0 0.359 0.995 17.333 17.333 0 0 1 -0.263 0.76c-0.215 0.564 -0.448 1.1 -0.672 1.616l-0.347 0.751a25.333 25.333 0 0 1 -1.181 2.301c-1.016 0.359 -1.928 0.775 -2.685 1.263a5.867 5.867 0 0 0 -1.064 0.86c-0.283 0.295 -0.569 0.679 -0.595 1.103a0.693 0.693 0 0 0 0.277 0.613c0.269 0.201 0.627 0.188 0.94 0.123 1.025 -0.215 1.812 -1.096 2.483 -1.839 0.461 -0.512 0.987 -1.161 1.537 -1.947l0.004 -0.005a23.333 23.333 0 0 1 3.057 -0.72q0.747 -0.124 1.529 -0.197c0.367 0.343 0.763 0.656 1.193 0.916 0.336 0.207 0.693 0.381 1.068 0.512 0.379 0.124 0.76 0.225 1.153 0.288q0.297 0.044 0.609 0.033c0.463 -0.017 1.128 -0.195 1.172 -0.757a0.8 0.8 0 0 0 -0.097 -0.455m-11.087 1.031a17.333 17.333 0 0 1 -0.623 0.904c-0.483 0.657 -1.033 1.437 -1.832 1.728a1.467 1.467 0 0 1 -0.561 0.1c-0.188 -0.011 -0.372 -0.093 -0.364 -0.307a0.933 0.933 0 0 1 0.143 -0.393c0.092 -0.153 0.205 -0.293 0.328 -0.423 0.263 -0.276 0.595 -0.544 0.977 -0.792 0.587 -0.38 1.287 -0.723 2.067 -1.028q-0.067 0.107 -0.135 0.209m2.723 -8.427a3.867 3.867 0 0 1 -0.032 -1.051 2.667 2.667 0 0 1 0.104 -0.495c0.043 -0.133 0.135 -0.457 0.283 -0.499 0.243 -0.069 0.317 0.453 0.345 0.6 0.156 0.84 0.019 1.773 -0.169 2.597a9.333 9.333 0 0 1 -0.097 0.388 12 12 0 0 1 -0.165 -0.483 8 8 0 0 1 -0.268 -1.059m1.668 6.628a24 24 0 0 0 -2.597 0.571c0.099 -0.028 0.548 -0.879 0.648 -1.056a12.933 12.933 0 0 0 1.136 -2.62 12.8 12.8 0 0 0 1.815 2.721q0.101 0.112 0.205 0.223 -0.613 0.067 -1.207 0.161m6.175 1.169c-0.033 0.18 -0.419 0.284 -0.599 0.312 -0.532 0.084 -1.093 0.017 -1.603 -0.155a5.333 5.333 0 0 1 -1.005 -0.469 6 6 0 0 1 -0.893 -0.667c0.343 -0.02 0.689 -0.035 1.039 -0.028 0.349 0.004 0.7 0.021 1.048 0.067 0.651 0.072 1.381 0.296 1.893 0.719 0.101 0.083 0.133 0.157 0.121 0.221"/><path style="fill:#FB3449;" points="227.64,25.263 32.842,25.263 32.842,0 219.821,0 	" d="M22.764 2.527H3.284V0h18.699Z"/><g><path style="fill:#A4A9AD;" d="M12.684 24.115q0 0.804 -0.475 1.243t-1.347 0.439h-0.364v1.592h-1.296v-4.797h1.66q0.909 0 1.365 0.397t0.456 1.129m-2.185 0.624h0.236q0.292 0 0.464 -0.164t0.172 -0.453q0 -0.485 -0.539 -0.485h-0.335z"/><path style="fill:#A4A9AD;" d="M17.521 24.887q0 1.201 -0.661 1.851c-0.661 0.649 -1.06 0.649 -1.859 0.649h-1.552v-4.797h1.66q1.155 0 1.784 0.591t0.628 1.707m-1.345 0.047q0 -0.66 -0.261 -0.977t-0.792 -0.319h-0.377v2.688h0.289q0.591 0 0.867 -0.343t0.276 -1.048"/><path style="fill:#A4A9AD;" d="M19.657 27.387h-1.276v-4.797h2.836v1.04h-1.559v0.916h1.437v1.04h-1.437z"/></g><path style="fill:#D1D3D3;" points="219.821,50.525 270.346,50.525 219.821,0 	" d="M21.983 5.052h5.052L21.983 0Z"/></g></svg>